<?xml version="1.0" encoding="utf-8"?>
<!-- Generator: Adobe Illustrator 21.1.0, SVG Export Plug-In . SVG Version: 6.00 Build 0)  -->
<svg version="1.1" id="Layer_1" xmlns="http://www.w3.org/2000/svg" xmlns:xlink="http://www.w3.org/1999/xlink" x="0px" y="0px"
	 viewBox="0 0 304.1 177" style="enable-background:new 0 0 304.1 177;" xml:space="preserve">
<style type="text/css">
	.st0{fill:#FFFFFF;}
	.st1{fill:#F7ACBB;}
	.st2{fill:#E8C566;}
	.st3{fill:#D9E8F7;}
	.st4{fill:#FFFCE8;}
	.st5{fill:#3D3D3D;}
</style>
<path class="st0" d="M31.9,75.7c1.1-6.3,3.3-11.3,6.6-15.1S45.9,55,50.9,55c3.9,0,7,0.9,9.2,2.6c2.3,1.8,4,4,5.2,6.6
	c1.2,2.7,2,5.6,2.3,8.7c0.3,3.2,0.5,6.1,0.5,8.9v48h-3.3v-48c0-2.6-0.2-5.3-0.5-8.1c-0.3-2.8-1-5.4-2-7.7c-1-2.3-2.4-4.3-4.3-5.8
	c-1.9-1.5-4.3-2.3-7.3-2.3c-3.2,0-6,0.9-8.4,2.8c-2.4,1.9-4.4,4.2-6,7.1c-1.6,2.9-2.8,6.1-3.6,9.7c-0.8,3.6-1.2,7-1.2,10.3v42h-3.3
	V75.7c0-1.2,0-2.6-0.1-4.3c-0.1-1.6-0.1-3.4-0.1-5.1c-0.1-1.8-0.1-3.4-0.2-5c-0.1-1.6-0.1-2.9-0.2-3.9h3.3c0.1,1,0.2,2.3,0.2,3.9
	c0,1.6,0.1,3.3,0.2,5c0,1.8,0.1,3.5,0.1,5.1c0,1.7,0,3.1,0,4.3H31.9z"/>
<path class="st0" d="M133.5,93.7c0,5.6-0.5,10.8-1.6,15.5c-1.1,4.8-2.6,8.8-4.5,12.2c-2,3.4-4.3,6.1-7.1,8c-2.8,1.9-6,2.9-9.5,2.9
	c-3.5,0-6.7-1-9.5-2.9c-2.8-1.9-5.2-4.6-7.1-8c-2-3.4-3.5-7.5-4.5-12.2c-1.1-4.8-1.6-9.9-1.6-15.5c0-5.7,0.5-10.9,1.5-15.6
	c1-4.7,2.5-8.8,4.4-12.2c1.9-3.5,4.3-6.1,7.1-8c2.9-1.9,6.1-2.9,9.7-2.9c3.5,0,6.7,1,9.5,2.9c2.8,1.9,5.2,4.6,7.1,8
	c2,3.5,3.5,7.5,4.5,12.2C133,82.8,133.5,88,133.5,93.7z M130.2,93.7c0-5.1-0.4-9.9-1.3-14.2c-0.9-4.4-2.1-8.1-3.7-11.4
	c-1.6-3.2-3.6-5.7-6.1-7.6c-2.5-1.9-5.2-2.8-8.3-2.8c-3.2,0-6,0.9-8.5,2.8c-2.5,1.9-4.5,4.4-6.1,7.6c-1.6,3.2-2.8,7-3.6,11.4
	c-0.8,4.4-1.2,9.1-1.2,14.2c0,5,0.4,9.7,1.2,14c0.8,4.3,2,8.1,3.6,11.3c1.6,3.2,3.6,5.7,6.1,7.6c2.5,1.9,5.3,2.8,8.5,2.8
	c3.2,0,6-0.9,8.4-2.8c2.4-1.9,4.4-4.4,6.1-7.6c1.7-3.2,2.9-7,3.7-11.3C129.8,103.3,130.2,98.7,130.2,93.7z"/>
<path class="st0" d="M165.3,130.8c-2.3,0-4.1-0.4-5.5-1.3c-1.4-0.8-2.4-2-3.2-3.5c-0.8-1.5-1.3-3.3-1.6-5.3c-0.3-2-0.4-4.3-0.4-6.7
	V60.4h-9.8v-3h9.8V36.1h3.3v21.3h13.2v3h-13.2v53.7c0,4.9,0.6,8.5,1.7,10.7c1.1,2.2,3.2,3.3,6.1,3.3c0.9,0,1.9-0.1,2.9-0.3
	c1.1-0.2,2-0.6,2.8-1.2l0.7,2.7C170,130.3,167.7,130.8,165.3,130.8z"/>
<path class="st0" d="M234.9,18.2c-0.8-0.2-1.5-0.4-2.1-0.5c-0.6-0.1-1.3-0.2-2.1-0.2c-2.1,0-3.9,0.6-5.3,1.7
	c-1.5,1.2-2.6,2.6-3.5,4.4c-0.9,1.8-1.5,3.9-1.9,6.2c-0.4,2.4-0.5,4.7-0.5,7.1v20.4h13.2v3h-13.2v69.5h-3.3V60.4h-10.8v-3h10.8V37.2
	c0-7.2,1.2-12.7,3.6-16.6c2.4-3.9,6-5.8,10.7-5.8c1.6,0,3.3,0.3,5,0.9L234.9,18.2z"/>
<path class="st0" d="M250.4,162.7c-2,2.2-4.6,3.2-7.8,3.2c-1.9,0-3.6-0.4-5-1l0.5-2.9c0.5,0.2,1.2,0.4,2,0.6
	c0.8,0.2,1.7,0.3,2.5,0.3c3.1,0,5.3-1.3,6.7-3.9c1.4-2.6,2.5-6,3.5-10.2l4.1-17.3l-19.5-74.1h3.5l17.7,69h0.3l17.1-69h3.3
	l-23.9,94.4C254.1,156.9,252.4,160.6,250.4,162.7z"/>
<g>
	
		<rect x="186.2" y="123.8" transform="matrix(8.066366e-10 -1 1 8.066366e-10 63.8673 316.3373)" class="st1" width="7.8" height="4.8"/>
	
		<rect x="160.7" y="85.9" transform="matrix(-4.447572e-11 1 -1 -4.447572e-11 278.4579 -101.7559)" class="st2" width="58.9" height="4.8"/>
	
		<rect x="187.6" y="117.9" transform="matrix(-5.144606e-10 1 -1 -5.144606e-10 310.4544 -69.7594)" class="st3" width="5.1" height="4.8"/>
	<polygon class="st4" points="190.1,40.2 191.2,49.5 192.4,58.9 190.1,58.9 187.7,58.9 188.9,49.5 	"/>
	<polygon class="st5" points="190.1,40.2 191.2,49.5 188.9,49.5 	"/>
</g>
</svg>
