<?xml version="1.0" encoding="utf-8"?>
<!-- Generator: Adobe Illustrator 21.1.0, SVG Export Plug-In . SVG Version: 6.00 Build 0)  -->
<svg version="1.1" id="Layer_1" xmlns="http://www.w3.org/2000/svg" xmlns:xlink="http://www.w3.org/1999/xlink" x="0px" y="0px"
	 viewBox="0 0 612 318" style="enable-background:new 0 0 612 318;" xml:space="preserve">
<style type="text/css">
	.st0{fill:#F7ACBB;}
	.st1{fill:#E8C566;}
	.st2{fill:#D9E8F7;}
	.st3{fill:#FFFCE8;}
	.st4{fill:#3D3D3D;}
	.st5{fill:#FFFFFF;}
	.st6{fill:#6B6B6B;}
</style>
<g>
	
		<rect x="220.1" y="221.1" transform="matrix(2.432703e-09 -1 1 2.432703e-09 -4.2162 451.898)" class="st0" width="7.4" height="13.9"/>
	
		<rect x="195.7" y="184.9" transform="matrix(-1.343878e-10 1 -1 -1.343878e-10 415.6958 -32.0124)" class="st1" width="56.3" height="14"/>
	
		<rect x="221.4" y="215.4" transform="matrix(-1.551794e-09 1 -1 -1.551794e-09 446.283 -1.4252)" class="st2" width="4.9" height="14"/>
	<polygon class="st3" points="223.7,145.8 227.1,154.7 230.5,163.7 223.7,163.7 216.9,163.7 220.3,154.7 	"/>
	<polygon class="st4" points="223.7,145.8 227.1,154.7 220.3,154.7 	"/>
</g>
<g>
	<path class="st5" d="M44,150.9l21.1,54.1l22-58l21.1,58l22.4-54.1h13.3l-36.2,86.1l-20.8-57.3L65.1,237l-34.4-86.1H44z"/>
	<path class="st5" d="M181.3,197.3l25,34.5h-14.9l-23.1-33.1h-2.2v33.1h-12.2v-80.9h14.3c10.7,0,18.4,2,23.2,6
		c5.2,4.5,7.9,10.4,7.9,17.7c0,5.7-1.6,10.7-4.9,14.8C191,193.5,186.6,196.1,181.3,197.3z M166.1,188h3.9c11.6,0,17.3-4.4,17.3-13.3
		c0-8.3-5.6-12.4-16.9-12.4h-4.3V188z"/>
	<path class="st5" d="M272.4,162.3v69.4h-12.2v-69.4h-18.6v-11.5H291v11.5H272.4z"/>
	<path class="st5" d="M345,212.1h-34.6l-9,19.7h-13.2l40-86l38.6,86h-13.4L345,212.1z M340,200.6l-12-27.5l-12.6,27.5H340z"/>
	<path class="st5" d="M377,231.8v-80.9h12.2c5.4,0,9.7,0.4,12.9,1.3c3.3,0.8,6,2.3,8.2,4.2c2.3,2.1,4.1,4.6,5.4,7.7
		c1.4,3.1,2,6.3,2,9.4c0,5.8-2.2,10.7-6.7,14.7c4.3,1.5,7.7,4,10.2,7.7c2.5,3.6,3.8,7.9,3.8,12.7c0,6.3-2.2,11.7-6.7,16
		c-2.7,2.7-5.7,4.6-9.1,5.6c-3.7,1-8.3,1.5-13.8,1.5H377z M389.2,185.6h3.8c4.5,0,7.9-1,10-3c2.1-2,3.2-5,3.2-8.9
		c0-3.8-1.1-6.7-3.3-8.7c-2.2-2-5.3-3-9.4-3h-4.3V185.6z M389.2,220.3h7.5c5.5,0,9.6-1.1,12.2-3.3c2.7-2.3,4.1-5.3,4.1-8.9
		c0-3.5-1.3-6.4-3.9-8.8c-2.6-2.3-7.1-3.5-13.7-3.5h-6.2V220.3z"/>
	<path class="st5" d="M452.7,150.9v69.4h23.8v11.5h-36v-80.9H452.7z"/>
	<path class="st5" d="M532.7,162.3h-32.4v19.4h31.5v11.5h-31.5v27h32.4v11.5H488v-80.9h44.6V162.3z"/>
</g>
<g>
	<path class="st6" d="M223.7,136.2c0.4-1.5,1-2.9,1.4-4.4l1.5-4.4c1-2.9,1.9-5.9,2.7-8.9c1.7-6,3-12,4-18.1c1-6.1,1.5-12.3,1.4-18.5
		c-0.1-6.2-0.9-12.4-2.7-18.3c-0.9-2.9-2-5.8-3.5-8.5c-1.4-2.7-3.1-5.3-5.1-7.7c-4-4.6-8.8-8.7-13.9-12
		c-10.3-6.7-22.5-10.3-34.7-11.2c-12.3-1-24.7,0.5-36.6,3.7c-5.9,1.6-11.8,3.6-17.4,6.1c-5.6,2.5-11,5.6-16,9
		c-10.1,7-19,15.7-25.7,26c-3.3,5.1-6,10.7-7.8,16.5c-0.9,2.9-1.5,5.9-1.7,8.9c-0.1,1.5-0.2,3-0.1,4.5c0,1.5,0.2,2.9,0.6,4.3
		c0.8,2.8,2.4,5.3,4.6,7.2c2.2,1.9,4.9,3.3,7.7,4.4c5.6,2.1,11.8,2.9,17.9,3.2c12.3,0.5,24.6-0.7,36.8-2.6
		c12.2-1.9,24.3-4.6,36.2-7.8c11.9-3.3,24-6.5,36-9.4c24.1-5.9,48.4-11.2,72.8-15.5c24.4-4.4,49.1-7.8,73.8-10.1
		c24.7-2.2,49.6-3.2,74.5-2.1c12.4,0.6,24.8,1.6,37.2,3.5c12.3,1.8,24.5,4.5,36.5,8.2c11.9,3.8,23.5,8.7,34.1,15.3
		c10.6,6.6,20.3,15.1,27.7,25.3c3.7,5.1,6.8,10.6,9.4,16.4c2.5,5.8,4.4,11.8,5.7,17.9c1.3,6.1,2,12.4,2.3,18.6
		c0.3,6.2,0.1,12.5-0.8,18.8c-0.4,3.1-1,6.2-1.7,9.2c-0.8,3-1.6,6.1-2.6,9c-1,3-2.2,5.9-3.4,8.7c-1.3,2.8-2.7,5.7-4.2,8.4
		c-6.1,11-13.8,20.9-22.9,29.5c-4.6,4.3-9.4,8.2-14.8,11.5c-5.4,3.2-10.9,6.1-16.5,8.7c-11.3,5.2-23.1,9.4-35.2,12.3
		c-12.1,2.9-24.5,4.6-36.9,4.9c-12.4,0.3-24.9-1-37-4.1c-6-1.6-11.9-3.7-17.5-6.3c-5.6-2.6-11-5.8-16-9.5c-5-3.7-9.5-8-13.5-12.8
		c-4-4.8-7.4-10-10.2-15.5c2.8,5.5,6.3,10.7,10.3,15.4c4,4.7,8.6,9,13.6,12.6c5,3.7,10.4,6.8,16,9.3c5.6,2.5,11.5,4.5,17.5,6.1
		c12,3,24.4,4.1,36.8,3.7c12.4-0.4,24.6-2.2,36.6-5.2c12-3,23.7-7.1,34.8-12.4c5.6-2.6,11.1-5.5,16.3-8.7c5.2-3.2,10-7.1,14.4-11.4
		c8.9-8.5,16.5-18.3,22.4-29.1c1.5-2.7,2.8-5.5,4.1-8.3c1.2-2.8,2.4-5.7,3.3-8.6c1-2.9,1.8-5.9,2.5-8.8c0.7-3,1.3-6,1.6-9
		c0.8-6.1,0.9-12.2,0.6-18.4c-0.3-6.1-1-12.2-2.3-18.2c-1.3-6-3.2-11.8-5.6-17.4c-2.5-5.6-5.5-10.9-9.1-15.9
		c-7.2-9.9-16.6-18.1-27-24.5c-10.4-6.5-21.8-11.3-33.6-15c-11.8-3.7-23.8-6.3-36.1-8.1c-12.2-1.8-24.5-2.9-36.9-3.4
		c-24.7-1-49.5,0-74.1,2.2c-24.6,2.2-49.2,5.6-73.6,9.9c-24.4,4.3-48.6,9.5-72.7,15.4c-12,2.9-24,6.1-36,9.4
		c-12,3.2-24.2,5.8-36.5,7.8c-12.3,1.9-24.8,3.2-37.3,2.5c-6.2-0.4-12.6-1.2-18.6-3.4c-3-1.1-5.9-2.7-8.4-4.9
		c-2.5-2.2-4.4-5.1-5.2-8.3c-0.4-1.6-0.6-3.3-0.7-4.9c0-1.6,0-3.2,0.2-4.8c0.3-3.2,1-6.3,1.9-9.3c1.8-6.1,4.7-11.7,8.1-17
		c6.9-10.5,16.1-19.4,26.4-26.4c5.2-3.5,10.7-6.6,16.4-9.1c5.7-2.5,11.6-4.6,17.7-6.1c12.1-3.1,24.7-4.6,37.1-3.5
		c12.4,1.1,24.8,4.9,35.2,11.8c5.2,3.5,10,7.6,14,12.3c2,2.4,3.7,5.1,5.1,7.9c1.4,2.8,2.5,5.7,3.4,8.7c1.7,6,2.5,12.2,2.5,18.5
		c0.1,6.2-0.5,12.4-1.6,18.5c-1,6.1-2.5,12.2-4.2,18.1c-0.9,3-1.8,5.9-2.8,8.9l-1.5,4.4C224.7,133.3,224.1,134.7,223.7,136.2z"/>
</g>
</svg>
